<svg xmlns="http://www.w3.org/2000/svg" width="100" height="100">
    <path style="stroke:none;fill-rule:nonzero;fill:#dc2626;fill-opacity:1" d="M91.07 42.188c-4.93 0-8.925 3.496-8.925 7.812h-1.79v-6.25c0-4.316-3.996-7.813-8.925-7.813-4.934 0-8.93 3.497-8.93 7.813V50h-1.785V9.375C60.715 4.195 55.918 0 50 0S39.285 4.195 39.285 9.375V50h-3.027l-15.57-34.68c-2.16-4.816-8.38-7.187-13.887-5.297C1.293 11.918-1.418 17.36.746 22.18l16.688 37.175-6.942 4.856c-3.433 2.406-4.355 6.637-2.172 9.977l14.285 21.874c1.59 2.434 4.547 3.938 7.75 3.938H83.93c4.14 0 7.742-2.492 8.691-6.023l7.14-26.563c.16-.586.239-1.187.239-1.789V50c0-4.316-3.996-7.813-8.93-7.813Zm0 0"/>
</svg>
