<svg xmlns="http://www.w3.org/2000/svg" width="100" height="100">
    <path style="stroke:none;fill-rule:nonzero;fill:#dc2626;fill-opacity:1" d="M90.781 15.625c-5.254-.078-9.531 4.14-9.531 9.375h-1.563v-6.094c0-5.136-4.082-9.433-9.218-9.531-5.254-.078-9.531 4.14-9.531 9.375V25h-1.563v-9.219c0-5.136-4.082-9.433-9.219-9.531-5.254-.078-9.531 4.14-9.531 9.375V25h-1.563v-6.094c0-5.136-4.082-9.433-9.218-9.531-5.254-.078-9.532 4.14-9.532 9.375v26.563l-1.562-1.387V34.53c0-5.136-4.082-9.433-9.219-9.531C4.277 24.922 0 29.14 0 34.375v12.969c0 5.351 2.285 10.449 6.29 14.023l21.815 19.395a9.417 9.417 0 0 1 3.145 7.011v1.309a4.676 4.676 0 0 0 4.688 4.688h46.874a4.676 4.676 0 0 0 4.688-4.688v-.566c0-2.5.508-4.98 1.465-7.286l9.57-22.714A18.669 18.669 0 0 0 100 51.23V25.156c0-5.136-4.082-9.453-9.219-9.531Zm0 0"/>
</svg>
