<svg xmlns="http://www.w3.org/2000/svg" width="100" height="100">
    <path style="stroke:none;fill-rule:nonzero;fill:#dc2626;fill-opacity:1" d="M91.246 25c-5.008-.082-9.101 3.586-9.101 7.969V50h-1.79V15.586c0-4.383-4.093-8.05-9.101-7.969-4.852.082-8.754 3.547-8.754 7.813V50h-1.785V7.969c0-4.383-4.098-8.051-9.102-7.969-4.851.082-8.758 3.547-8.758 7.813V50H41.07V15.781c0-4.383-4.097-8.05-9.101-7.969-4.852.083-8.754 3.547-8.754 7.813v46.094l-7.067-8.5c-2.898-3.492-8.484-4.262-12.472-1.723-3.985 2.535-4.867 7.422-1.969 10.91l28.04 33.735C31.761 98.566 34.98 100 38.41 100h44.106c4.968 0 9.289-2.992 10.43-7.227l5.913-22.003c.758-2.817 1.141-5.7 1.141-8.59V32.813c0-4.266-3.902-7.731-8.754-7.813Zm0 0"/>
</svg>
